<svg xmlns="http://www.w3.org/2000/svg" viewBox="0 0 1000 1000" preserveAspectRatio="xMidYMid slice">
	<defs>
		<!-- Gradient mask to fade out lines toward the center -->
		<radialGradient id="fade-out" cx="50%" cy="50%" r="50%" gradientUnits="userSpaceOnUse">
			<stop offset="10%" stop-color="#888888" stop-opacity="0" />
			<stop offset="100%" stop-color="#000000" stop-opacity="0.5"/>
		</radialGradient>
	</defs>
	<!-- Lines -->
	<g stroke="url(#fade-out)" stroke-width="0.5" stroke-linecap="round" fill="none">
		<!-- Randomized lines -->
		<line x1="47" y1="0" x2="481" y2="488" stroke-opacity="0.8" />
		<line x1="293" y1="0" x2="492" y2="501" stroke-opacity="0.6" />
		<line x1="711" y1="0" x2="503" y2="523" stroke-opacity="1.0" />
		<line x1="914" y1="0" x2="518" y2="497" stroke-opacity="0.5" />
<!--		<line x1="82" y1="1000" x2="477" y2="480" stroke-opacity="0.9" />-->
		<line x1="368" y1="1000" x2="499" y2="482" stroke-opacity="0.7" />
		<line x1="721" y1="1000" x2="524" y2="517" stroke-opacity="0.5" />
		<line x1="943" y1="1000" x2="488" y2="490" stroke-opacity="1.0" />
		<line x1="0" y1="119" x2="520" y2="502" stroke-opacity="0.6" />
		<line x1="0" y1="447" x2="496" y2="516" stroke-opacity="0.8" />
		<line x1="0" y1="693" x2="478" y2="481" stroke-opacity="0.4" />
		<line x1="0" y1="975" x2="525" y2="499" stroke-opacity="1.0" />
		<line x1="1000" y1="71" x2="503" y2="494" stroke-opacity="0.9" />
		<line x1="1000" y1="371" x2="521" y2="475" stroke-opacity="0.5" />
		<line x1="1000" y1="623" x2="482" y2="521" stroke-opacity="0.7" />
		<line x1="1000" y1="889" x2="500" y2="515" stroke-opacity="1.0" />
		<line x1="173" y1="0" x2="520" y2="495" stroke-opacity="0.6" />
		<line x1="0" y1="218" x2="480" y2="504" stroke-opacity="0.8" />
		<line x1="1000" y1="478" x2="493" y2="475" stroke-opacity="0.4" />
		<line x1="803" y1="0" x2="481" y2="519" stroke-opacity="1.0" />
		<line x1="0" y1="811" x2="499" y2="479" stroke-opacity="0.5" />
		<line x1="623" y1="1000" x2="501" y2="486" stroke-opacity="0.9" />
		<line x1="1000" y1="293" x2="475" y2="511" stroke-opacity="0.7" />
		<line x1="347" y1="0" x2="522" y2="495" stroke-opacity="1.0" />
		<line x1="0" y1="527" x2="481" y2="478" stroke-opacity="0.5" />
		<line x1="937" y1="0" x2="499" y2="483" stroke-opacity="0.9" />
		<line x1="1000" y1="773" x2="487" y2="503" stroke-opacity="0.6" />
		<line x1="0" y1="393" x2="495" y2="523" stroke-opacity="0.8" />
		<line x1="110" y1="1000" x2="475" y2="520" stroke-opacity="0.4" />
	</g>
</svg>
